# xmcd CD database file
#
# Track frame offsets:
#	150
#	20767
#	23737
#	43140
#	51192
#	71550
#	77660
#	94430
#	97070
#	113200
#	128552
#	151240
#	175175
#	190940
#	219372
#	239020
#	254215
#	269490
#	285240
#
# Disc length: 4011 seconds
#
# Revision: 3
# Processed by: cddbd v1.5PL3 Copyright (c) Steve Scherf et al.
# Submitted via: CDex 1.51
#
DISCID=170fa913
DTITLE=Various Artist - ふしぎの海のナディア コンプリート・サウンド・コレクション DISC 2
DYEAR=1993
DGENRE=Anime
TTITLE0=鷹森淑乃/出会いは高所恐怖症
TTITLE1=日高のり子/コントその壱
TTITLE2=日高のり子/レッツ・ゴー・ジャン君’91
TTITLE3=水谷優子/コントその弐
TTITLE4=水谷優子/人生行路のマーチ
TTITLE5=大塚明夫/さすらいのエーコー・ウィラン
TTITLE6=大塚明夫/我らの万能潜水艦ノーチラス号
TTITLE7=堀内賢雄/コントその参
TTITLE8=堀内賢雄/たびだちのうた
TTITLE9=井上喜久子/レッツ・ゴー・エレクトラさん(Version2)
TTITLE10=松本保典/愛の花園(Version2)
TTITLE11=鷹森淑乃/First Contact(Version2)
TTITLE12=大塚明夫/我らの万能戦艦N-ノーチラス号
TTITLE13=日高のり子/Bye Bye Blue Water(Version2)
TTITLE14=水谷優子/人生行路のマーチ(Version2)
TTITLE15=大塚明夫/我らの万能潜水艦ノーチラス号(Version2)
TTITLE16=大塚明夫/我らの万能潜水艦ノーチラス号(Bonus Mix)
TTITLE17=堀内賢雄/たびだちのうた(Version2)
TTITLE18=大塚明夫/我らの万能戦艦N-ノーチラス号(Version2)
EXTD=YEAR: 1993/03/24
EXTT0=
EXTT1=
EXTT2=
EXTT3=
EXTT4=
EXTT5=
EXTT6=
EXTT7=
EXTT8=
EXTT9=
EXTT10=
EXTT11=
EXTT12=
EXTT13=
EXTT14=
EXTT15=
EXTT16=
EXTT17=
EXTT18=
PLAYORDER=
